%TF.GenerationSoftware,KiCad,Pcbnew,(6.0.1)*%
%TF.CreationDate,2022-11-04T01:34:04+00:00*%
%TF.ProjectId,rusEFI-Optoisolator,72757345-4649-42d4-9f70-746f69736f6c,rev?*%
%TF.SameCoordinates,Original*%
%TF.FileFunction,Copper,L2,Bot*%
%TF.FilePolarity,Positive*%
%FSLAX46Y46*%
G04 Gerber Fmt 4.6, Leading zero omitted, Abs format (unit mm)*
G04 Created by KiCad (PCBNEW (6.0.1)) date 2022-11-04 01:34:04*
%MOMM*%
%LPD*%
G01*
G04 APERTURE LIST*
%ADD10C,0.300000*%
%TA.AperFunction,NonConductor*%
%ADD11C,0.300000*%
%TD*%
%TA.AperFunction,ComponentPad*%
%ADD12C,1.600000*%
%TD*%
%TA.AperFunction,ComponentPad*%
%ADD13O,1.600000X1.600000*%
%TD*%
%TA.AperFunction,ComponentPad*%
%ADD14R,1.700000X1.700000*%
%TD*%
%TA.AperFunction,ComponentPad*%
%ADD15O,1.700000X1.700000*%
%TD*%
%TA.AperFunction,ComponentPad*%
%ADD16R,1.600000X1.600000*%
%TD*%
%TA.AperFunction,ViaPad*%
%ADD17C,0.800000*%
%TD*%
%TA.AperFunction,Conductor*%
%ADD18C,1.200000*%
%TD*%
G04 APERTURE END LIST*
D10*
D11*
X157762007Y-81617635D02*
X158262007Y-81617635D01*
X158262007Y-82403349D02*
X158262007Y-80903349D01*
X157547722Y-80903349D01*
X156333436Y-81403349D02*
X156333436Y-82403349D01*
X156976293Y-81403349D02*
X156976293Y-82189063D01*
X156904865Y-82331920D01*
X156762007Y-82403349D01*
X156547722Y-82403349D01*
X156404865Y-82331920D01*
X156333436Y-82260492D01*
X155833436Y-81403349D02*
X155262007Y-81403349D01*
X155619150Y-80903349D02*
X155619150Y-82189063D01*
X155547722Y-82331920D01*
X155404865Y-82403349D01*
X155262007Y-82403349D01*
X154119150Y-81403349D02*
X154119150Y-82403349D01*
X154762007Y-81403349D02*
X154762007Y-82189063D01*
X154690579Y-82331920D01*
X154547722Y-82403349D01*
X154333436Y-82403349D01*
X154190579Y-82331920D01*
X154119150Y-82260492D01*
X153404865Y-82403349D02*
X153404865Y-81403349D01*
X153404865Y-81689063D02*
X153333436Y-81546206D01*
X153262007Y-81474778D01*
X153119150Y-81403349D01*
X152976293Y-81403349D01*
X151904865Y-82331920D02*
X152047722Y-82403349D01*
X152333436Y-82403349D01*
X152476293Y-82331920D01*
X152547722Y-82189063D01*
X152547722Y-81617635D01*
X152476293Y-81474778D01*
X152333436Y-81403349D01*
X152047722Y-81403349D01*
X151904865Y-81474778D01*
X151833436Y-81617635D01*
X151833436Y-81760492D01*
X152547722Y-81903349D01*
X151190579Y-82403349D02*
X151190579Y-80903349D01*
X150619150Y-80903349D01*
X150476293Y-80974778D01*
X150404865Y-81046206D01*
X150333436Y-81189063D01*
X150333436Y-81403349D01*
X150404865Y-81546206D01*
X150476293Y-81617635D01*
X150619150Y-81689063D01*
X151190579Y-81689063D01*
X149690579Y-82403349D02*
X149690579Y-81403349D01*
X149690579Y-81689063D02*
X149619150Y-81546206D01*
X149547722Y-81474778D01*
X149404865Y-81403349D01*
X149262007Y-81403349D01*
X148547722Y-82403349D02*
X148690579Y-82331920D01*
X148762007Y-82260492D01*
X148833436Y-82117635D01*
X148833436Y-81689063D01*
X148762007Y-81546206D01*
X148690579Y-81474778D01*
X148547722Y-81403349D01*
X148333436Y-81403349D01*
X148190579Y-81474778D01*
X148119150Y-81546206D01*
X148047722Y-81689063D01*
X148047722Y-82117635D01*
X148119150Y-82260492D01*
X148190579Y-82331920D01*
X148333436Y-82403349D01*
X148547722Y-82403349D01*
X147190579Y-82403349D02*
X147333436Y-82331920D01*
X147404865Y-82260492D01*
X147476293Y-82117635D01*
X147476293Y-81689063D01*
X147404865Y-81546206D01*
X147333436Y-81474778D01*
X147190579Y-81403349D01*
X146976293Y-81403349D01*
X146833436Y-81474778D01*
X146762007Y-81546206D01*
X146690579Y-81689063D01*
X146690579Y-82117635D01*
X146762007Y-82260492D01*
X146833436Y-82331920D01*
X146976293Y-82403349D01*
X147190579Y-82403349D01*
X146262007Y-81403349D02*
X145690579Y-81403349D01*
X146047722Y-82403349D02*
X146047722Y-81117635D01*
X145976293Y-80974778D01*
X145833436Y-80903349D01*
X145690579Y-80903349D01*
X145190579Y-82403349D02*
X145190579Y-80903349D01*
X144619150Y-80903349D01*
X144476293Y-80974778D01*
X144404865Y-81046206D01*
X144333436Y-81189063D01*
X144333436Y-81403349D01*
X144404865Y-81546206D01*
X144476293Y-81617635D01*
X144619150Y-81689063D01*
X145190579Y-81689063D01*
X143119150Y-82331920D02*
X143262007Y-82403349D01*
X143547722Y-82403349D01*
X143690579Y-82331920D01*
X143762007Y-82189063D01*
X143762007Y-81617635D01*
X143690579Y-81474778D01*
X143547722Y-81403349D01*
X143262007Y-81403349D01*
X143119150Y-81474778D01*
X143047722Y-81617635D01*
X143047722Y-81760492D01*
X143762007Y-81903349D01*
X142404865Y-82403349D02*
X142404865Y-81403349D01*
X142404865Y-81689063D02*
X142333436Y-81546206D01*
X142262007Y-81474778D01*
X142119150Y-81403349D01*
X141976293Y-81403349D01*
X141690579Y-81403349D02*
X141119150Y-81403349D01*
X141476293Y-82403349D02*
X141476293Y-81117635D01*
X141404865Y-80974778D01*
X141262007Y-80903349D01*
X141119150Y-80903349D01*
X140404865Y-82403349D02*
X140547722Y-82331920D01*
X140619150Y-82260492D01*
X140690579Y-82117635D01*
X140690579Y-81689063D01*
X140619150Y-81546206D01*
X140547722Y-81474778D01*
X140404865Y-81403349D01*
X140190579Y-81403349D01*
X140047722Y-81474778D01*
X139976293Y-81546206D01*
X139904865Y-81689063D01*
X139904865Y-82117635D01*
X139976293Y-82260492D01*
X140047722Y-82331920D01*
X140190579Y-82403349D01*
X140404865Y-82403349D01*
X139262007Y-82403349D02*
X139262007Y-81403349D01*
X139262007Y-81689063D02*
X139190579Y-81546206D01*
X139119150Y-81474778D01*
X138976293Y-81403349D01*
X138833436Y-81403349D01*
X138333436Y-82403349D02*
X138333436Y-81403349D01*
X138333436Y-81546206D02*
X138262007Y-81474778D01*
X138119150Y-81403349D01*
X137904865Y-81403349D01*
X137762007Y-81474778D01*
X137690579Y-81617635D01*
X137690579Y-82403349D01*
X137690579Y-81617635D02*
X137619150Y-81474778D01*
X137476293Y-81403349D01*
X137262007Y-81403349D01*
X137119150Y-81474778D01*
X137047722Y-81617635D01*
X137047722Y-82403349D01*
X135690579Y-82403349D02*
X135690579Y-81617635D01*
X135762007Y-81474778D01*
X135904865Y-81403349D01*
X136190579Y-81403349D01*
X136333436Y-81474778D01*
X135690579Y-82331920D02*
X135833436Y-82403349D01*
X136190579Y-82403349D01*
X136333436Y-82331920D01*
X136404865Y-82189063D01*
X136404865Y-82046206D01*
X136333436Y-81903349D01*
X136190579Y-81831920D01*
X135833436Y-81831920D01*
X135690579Y-81760492D01*
X134976293Y-81403349D02*
X134976293Y-82403349D01*
X134976293Y-81546206D02*
X134904865Y-81474778D01*
X134762007Y-81403349D01*
X134547722Y-81403349D01*
X134404865Y-81474778D01*
X134333436Y-81617635D01*
X134333436Y-82403349D01*
X132976293Y-82331920D02*
X133119150Y-82403349D01*
X133404864Y-82403349D01*
X133547722Y-82331920D01*
X133619150Y-82260492D01*
X133690579Y-82117635D01*
X133690579Y-81689063D01*
X133619150Y-81546206D01*
X133547722Y-81474778D01*
X133404864Y-81403349D01*
X133119150Y-81403349D01*
X132976293Y-81474778D01*
X131762007Y-82331920D02*
X131904864Y-82403349D01*
X132190579Y-82403349D01*
X132333436Y-82331920D01*
X132404864Y-82189063D01*
X132404864Y-81617635D01*
X132333436Y-81474778D01*
X132190579Y-81403349D01*
X131904864Y-81403349D01*
X131762007Y-81474778D01*
X131690579Y-81617635D01*
X131690579Y-81760492D01*
X132404864Y-81903349D01*
X131047722Y-82260492D02*
X130976293Y-82331920D01*
X131047722Y-82403349D01*
X131119150Y-82331920D01*
X131047722Y-82260492D01*
X131047722Y-82403349D01*
X129690579Y-82331920D02*
X129833436Y-82403349D01*
X130119150Y-82403349D01*
X130262007Y-82331920D01*
X130333436Y-82260492D01*
X130404864Y-82117635D01*
X130404864Y-81689063D01*
X130333436Y-81546206D01*
X130262007Y-81474778D01*
X130119150Y-81403349D01*
X129833436Y-81403349D01*
X129690579Y-81474778D01*
X128833436Y-82403349D02*
X128976293Y-82331920D01*
X129047722Y-82260492D01*
X129119150Y-82117635D01*
X129119150Y-81689063D01*
X129047722Y-81546206D01*
X128976293Y-81474778D01*
X128833436Y-81403349D01*
X128619150Y-81403349D01*
X128476293Y-81474778D01*
X128404864Y-81546206D01*
X128333436Y-81689063D01*
X128333436Y-82117635D01*
X128404864Y-82260492D01*
X128476293Y-82331920D01*
X128619150Y-82403349D01*
X128833436Y-82403349D01*
X127690579Y-82403349D02*
X127690579Y-81403349D01*
X127690579Y-81546206D02*
X127619150Y-81474778D01*
X127476293Y-81403349D01*
X127262007Y-81403349D01*
X127119150Y-81474778D01*
X127047722Y-81617635D01*
X127047722Y-82403349D01*
X127047722Y-81617635D02*
X126976293Y-81474778D01*
X126833436Y-81403349D01*
X126619150Y-81403349D01*
X126476293Y-81474778D01*
X126404864Y-81617635D01*
X126404864Y-82403349D01*
X124619150Y-81046206D02*
X124547722Y-80974778D01*
X124404864Y-80903349D01*
X124047722Y-80903349D01*
X123904864Y-80974778D01*
X123833436Y-81046206D01*
X123762007Y-81189063D01*
X123762007Y-81331920D01*
X123833436Y-81546206D01*
X124690579Y-82403349D01*
X123762007Y-82403349D01*
X122833436Y-80903349D02*
X122690579Y-80903349D01*
X122547722Y-80974778D01*
X122476293Y-81046206D01*
X122404864Y-81189063D01*
X122333436Y-81474778D01*
X122333436Y-81831920D01*
X122404864Y-82117635D01*
X122476293Y-82260492D01*
X122547722Y-82331920D01*
X122690579Y-82403349D01*
X122833436Y-82403349D01*
X122976293Y-82331920D01*
X123047722Y-82260492D01*
X123119150Y-82117635D01*
X123190579Y-81831920D01*
X123190579Y-81474778D01*
X123119150Y-81189063D01*
X123047722Y-81046206D01*
X122976293Y-80974778D01*
X122833436Y-80903349D01*
X121762007Y-81046206D02*
X121690579Y-80974778D01*
X121547722Y-80903349D01*
X121190579Y-80903349D01*
X121047722Y-80974778D01*
X120976293Y-81046206D01*
X120904864Y-81189063D01*
X120904864Y-81331920D01*
X120976293Y-81546206D01*
X121833436Y-82403349D01*
X120904864Y-82403349D01*
X120333436Y-81046206D02*
X120262007Y-80974778D01*
X120119150Y-80903349D01*
X119762007Y-80903349D01*
X119619150Y-80974778D01*
X119547722Y-81046206D01*
X119476293Y-81189063D01*
X119476293Y-81331920D01*
X119547722Y-81546206D01*
X120404864Y-82403349D01*
X119476293Y-82403349D01*
D12*
%TO.P,R1,1*%
%TO.N,Net-(C3-Pad1)*%
X123344639Y-88884935D03*
D13*
%TO.P,R1,2*%
%TO.N,Net-(C2-Pad1)*%
X138584639Y-88884935D03*
%TD*%
D14*
%TO.P,J2,1,Pin_1*%
%TO.N,Net-(C1-Pad2)*%
X156672141Y-88956287D03*
D15*
%TO.P,J2,2,Pin_2*%
%TO.N,Trigger_Output*%
X156672141Y-86416287D03*
%TO.P,J2,3,Pin_3*%
%TO.N,5V*%
X156672141Y-83876287D03*
%TD*%
D16*
%TO.P,U1,1*%
%TO.N,Net-(C2-Pad1)*%
X143595268Y-83712966D03*
D13*
%TO.P,U1,2*%
%TO.N,GND*%
X143595268Y-86252966D03*
%TO.P,U1,3,NC*%
%TO.N,unconnected-(U1-Pad3)*%
X143595268Y-88792966D03*
%TO.P,U1,4*%
%TO.N,Net-(C1-Pad2)*%
X151215268Y-88792966D03*
%TO.P,U1,5*%
%TO.N,Trigger_Output*%
X151215268Y-86252966D03*
%TO.P,U1,6*%
%TO.N,unconnected-(U1-Pad6)*%
X151215268Y-83712966D03*
%TD*%
D14*
%TO.P,J1,1,Pin_1*%
%TO.N,Coil_in*%
X119214967Y-83806566D03*
D15*
%TO.P,J1,2,Pin_2*%
%TO.N,GND*%
X119214967Y-86346566D03*
%TD*%
D17*
%TO.N,GND*%
X121955912Y-86387590D03*
%TD*%
D18*
%TO.N,GND*%
X121955912Y-86387590D02*
X121913443Y-86345121D01*
X121998381Y-86345121D02*
X121955912Y-86387590D01*
X121905121Y-86345121D02*
X121903676Y-86346566D01*
X143503113Y-86345121D02*
X121998381Y-86345121D01*
X143595268Y-86252966D02*
X143503113Y-86345121D01*
X121903676Y-86346566D02*
X119214967Y-86346566D01*
X121913443Y-86345121D02*
X121905121Y-86345121D01*
%TD*%
M02*
