%TF.GenerationSoftware,KiCad,Pcbnew,(6.0.1)*%
%TF.CreationDate,2022-09-12T22:22:16+01:00*%
%TF.ProjectId,rusEFI-Optoisolator,72757345-4649-42d4-9f70-746f69736f6c,rev?*%
%TF.SameCoordinates,Original*%
%TF.FileFunction,Copper,L1,Top*%
%TF.FilePolarity,Positive*%
%FSLAX46Y46*%
G04 Gerber Fmt 4.6, Leading zero omitted, Abs format (unit mm)*
G04 Created by KiCad (PCBNEW (6.0.1)) date 2022-09-12 22:22:16*
%MOMM*%
%LPD*%
G01*
G04 APERTURE LIST*
G04 Aperture macros list*
%AMRoundRect*
0 Rectangle with rounded corners*
0 $1 Rounding radius*
0 $2 $3 $4 $5 $6 $7 $8 $9 X,Y pos of 4 corners*
0 Add a 4 corners polygon primitive as box body*
4,1,4,$2,$3,$4,$5,$6,$7,$8,$9,$2,$3,0*
0 Add four circle primitives for the rounded corners*
1,1,$1+$1,$2,$3*
1,1,$1+$1,$4,$5*
1,1,$1+$1,$6,$7*
1,1,$1+$1,$8,$9*
0 Add four rect primitives between the rounded corners*
20,1,$1+$1,$2,$3,$4,$5,0*
20,1,$1+$1,$4,$5,$6,$7,0*
20,1,$1+$1,$6,$7,$8,$9,0*
20,1,$1+$1,$8,$9,$2,$3,0*%
G04 Aperture macros list end*
%TA.AperFunction,SMDPad,CuDef*%
%ADD10RoundRect,0.250000X-0.262500X-0.450000X0.262500X-0.450000X0.262500X0.450000X-0.262500X0.450000X0*%
%TD*%
%TA.AperFunction,SMDPad,CuDef*%
%ADD11R,2.500000X1.800000*%
%TD*%
%TA.AperFunction,SMDPad,CuDef*%
%ADD12RoundRect,0.250000X-0.475000X0.250000X-0.475000X-0.250000X0.475000X-0.250000X0.475000X0.250000X0*%
%TD*%
%TA.AperFunction,SMDPad,CuDef*%
%ADD13R,2.500000X2.300000*%
%TD*%
%TA.AperFunction,ComponentPad*%
%ADD14R,1.700000X1.700000*%
%TD*%
%TA.AperFunction,ComponentPad*%
%ADD15O,1.700000X1.700000*%
%TD*%
%TA.AperFunction,ComponentPad*%
%ADD16R,1.600000X1.600000*%
%TD*%
%TA.AperFunction,ComponentPad*%
%ADD17O,1.600000X1.600000*%
%TD*%
%TA.AperFunction,SMDPad,CuDef*%
%ADD18RoundRect,0.250000X-0.650000X0.325000X-0.650000X-0.325000X0.650000X-0.325000X0.650000X0.325000X0*%
%TD*%
%TA.AperFunction,SMDPad,CuDef*%
%ADD19RoundRect,0.250000X0.625000X-0.312500X0.625000X0.312500X-0.625000X0.312500X-0.625000X-0.312500X0*%
%TD*%
%TA.AperFunction,ViaPad*%
%ADD20C,0.800000*%
%TD*%
%TA.AperFunction,Conductor*%
%ADD21C,1.200000*%
%TD*%
%TA.AperFunction,Conductor*%
%ADD22C,0.762000*%
%TD*%
G04 APERTURE END LIST*
D10*
%TO.P,R2,1*%
%TO.N,Trigger_Output*%
X152228439Y-83837712D03*
%TO.P,R2,2*%
%TO.N,5V*%
X154053439Y-83837712D03*
%TD*%
D11*
%TO.P,D3,1,K*%
%TO.N,Net-(D3-Pad1)*%
X136851869Y-88841645D03*
%TO.P,D3,2,A*%
%TO.N,GND*%
X132851869Y-88841645D03*
%TD*%
%TO.P,D1,1,K*%
%TO.N,Coil_in*%
X125071513Y-88900000D03*
%TO.P,D1,2,A*%
%TO.N,GND*%
X129071513Y-88900000D03*
%TD*%
D12*
%TO.P,C1,1*%
%TO.N,Trigger_Output*%
X152400000Y-87103782D03*
%TO.P,C1,2*%
%TO.N,Net-(C1-Pad2)*%
X152400000Y-89003782D03*
%TD*%
D13*
%TO.P,D2,1,K*%
%TO.N,Net-(D2-Pad1)*%
X129150000Y-81280000D03*
%TO.P,D2,2,A*%
%TO.N,Coil_in*%
X124850000Y-81280000D03*
%TD*%
D14*
%TO.P,J2,1,Pin_1*%
%TO.N,Net-(C1-Pad2)*%
X156672141Y-88956287D03*
D15*
%TO.P,J2,2,Pin_2*%
%TO.N,Trigger_Output*%
X156672141Y-86416287D03*
%TO.P,J2,3,Pin_3*%
%TO.N,5V*%
X156672141Y-83876287D03*
%TD*%
D16*
%TO.P,U1,1*%
%TO.N,Net-(C2-Pad1)*%
X142240000Y-83820000D03*
D17*
%TO.P,U1,2*%
%TO.N,GND*%
X142240000Y-86360000D03*
%TO.P,U1,3,NC*%
%TO.N,unconnected-(U1-Pad3)*%
X142240000Y-88900000D03*
%TO.P,U1,4*%
%TO.N,Net-(C1-Pad2)*%
X149860000Y-88900000D03*
%TO.P,U1,5*%
%TO.N,unconnected-(U1-Pad5)*%
X149860000Y-86360000D03*
%TO.P,U1,6*%
%TO.N,Trigger_Output*%
X149860000Y-83820000D03*
%TD*%
D18*
%TO.P,C2,1*%
%TO.N,Net-(C2-Pad1)*%
X139636357Y-84082747D03*
%TO.P,C2,2*%
%TO.N,GND*%
X139636357Y-87032747D03*
%TD*%
D14*
%TO.P,J1,1,Pin_1*%
%TO.N,Coil_in*%
X119214967Y-83806566D03*
D15*
%TO.P,J1,2,Pin_2*%
%TO.N,GND*%
X119214967Y-86346566D03*
%TD*%
D11*
%TO.P,D4,1,K*%
%TO.N,Net-(D3-Pad1)*%
X135160000Y-81280000D03*
%TO.P,D4,2,A*%
%TO.N,Net-(C2-Pad1)*%
X139160000Y-81280000D03*
%TD*%
D19*
%TO.P,R1,1*%
%TO.N,Net-(D2-Pad1)*%
X132080000Y-82742500D03*
%TO.P,R1,2*%
%TO.N,Net-(D3-Pad1)*%
X132080000Y-79817500D03*
%TD*%
D20*
%TO.N,GND*%
X134605121Y-86345121D03*
X129554879Y-86345121D03*
X132094879Y-86345121D03*
X127014879Y-86345121D03*
%TD*%
D21*
%TO.N,GND*%
X132094879Y-86345121D02*
X134605121Y-86345121D01*
X129071513Y-87142287D02*
X129071513Y-88900000D01*
X128274347Y-86345121D02*
X129071513Y-87142287D01*
X127014879Y-86345121D02*
X128274347Y-86345121D01*
X129071513Y-86828487D02*
X129554879Y-86345121D01*
X141567253Y-87032747D02*
X139636357Y-87032747D01*
X134605121Y-86547557D02*
X132851869Y-88300809D01*
X129492693Y-89321180D02*
X129071513Y-88900000D01*
X134605121Y-86345121D02*
X134605121Y-86547557D01*
X129543389Y-88900000D02*
X129071513Y-88900000D01*
X132372334Y-89321180D02*
X129492693Y-89321180D01*
X132851869Y-88841645D02*
X132372334Y-89321180D01*
X132851869Y-88300809D02*
X132851869Y-88841645D01*
X142240000Y-86360000D02*
X141567253Y-87032747D01*
X129071513Y-88900000D02*
X129071513Y-86828487D01*
D22*
%TO.N,Trigger_Output*%
X149860000Y-83820000D02*
X152210727Y-83820000D01*
X152228439Y-86932221D02*
X152400000Y-87103782D01*
X153143782Y-86360000D02*
X156615854Y-86360000D01*
X152228439Y-83837712D02*
X152228439Y-86932221D01*
X152210727Y-83820000D02*
X152228439Y-83837712D01*
X156615854Y-86360000D02*
X156672141Y-86416287D01*
X152400000Y-87103782D02*
X153143782Y-86360000D01*
D21*
%TO.N,Coil_in*%
X125071513Y-88900000D02*
X125071513Y-81501513D01*
X119214967Y-83806566D02*
X121741533Y-81280000D01*
X125071513Y-81501513D02*
X124850000Y-81280000D01*
X121741533Y-81280000D02*
X124850000Y-81280000D01*
%TO.N,Net-(D2-Pad1)*%
X129150000Y-81463579D02*
X130428921Y-82742500D01*
X130428921Y-82742500D02*
X132080000Y-82742500D01*
X129150000Y-81280000D02*
X129150000Y-81463579D01*
%TO.N,Net-(D3-Pad1)*%
X135160000Y-81268194D02*
X133709306Y-79817500D01*
X135160000Y-81280000D02*
X135160000Y-81268194D01*
X136851869Y-88841645D02*
X137436339Y-88257175D01*
X133709306Y-79817500D02*
X132080000Y-79817500D01*
X137436339Y-88257175D02*
X137436339Y-83556339D01*
X137436339Y-83556339D02*
X135160000Y-81280000D01*
D22*
%TO.N,5V*%
X154071151Y-83820000D02*
X156615854Y-83820000D01*
X156615854Y-83820000D02*
X156672141Y-83876287D01*
X154053439Y-83837712D02*
X154071151Y-83820000D01*
%TO.N,Net-(C1-Pad2)*%
X149874879Y-88885121D02*
X149860000Y-88900000D01*
X152281339Y-88885121D02*
X149874879Y-88885121D01*
X152400000Y-89003782D02*
X152503782Y-88900000D01*
X156615854Y-88900000D02*
X156672141Y-88956287D01*
X152400000Y-89003782D02*
X152281339Y-88885121D01*
X152503782Y-88900000D02*
X156615854Y-88900000D01*
D21*
%TO.N,Net-(C2-Pad1)*%
X142240000Y-83820000D02*
X139899104Y-83820000D01*
X139899104Y-83820000D02*
X139636357Y-84082747D01*
X139160000Y-83606390D02*
X139160000Y-81280000D01*
X139636357Y-84082747D02*
X139160000Y-83606390D01*
%TD*%
M02*
