%FSLAX45Y45*%
G04 Gerber Fmt 4.5, Leading zero omitted, Abs format (unit mm)*
G04 Created by KiCad (PCBNEW (6.0.1)) date 2022-11-04 03:33:20*
%MOMM*%
%LPD*%
G01*
G04 APERTURE LIST*
%TA.AperFunction,Profile*%
%ADD10C,0.200000*%
%TD*%
%ADD11C,0.200000*%
%ADD12C,0.040000*%
%ADD13C,0.080000*%
%ADD14C,0.100000*%
G04 APERTURE END LIST*
D10*
X11684000Y-8026414D02*
X16002000Y-8026414D01*
X16002000Y-9144000D02*
X11684000Y-9144000D01*
X11684000Y-9144000D02*
X11684000Y-8026414D01*
X16002000Y-8026414D02*
X16002000Y-9144000D01*
D11*
D12*
X12175591Y-8618759D02*
X12215591Y-8658759D01*
X12215591Y-8618759D02*
X12175591Y-8658759D01*
D13*
X12374464Y-8888494D02*
G75*
G03*
X12374464Y-8888494I-40000J0D01*
G01*
X13898464Y-8888494D02*
G75*
G03*
X13898464Y-8888494I-40000J0D01*
G01*
X14399527Y-8371297D02*
G75*
G03*
X14399527Y-8371297I-40000J0D01*
G01*
X14399527Y-8625297D02*
G75*
G03*
X14399527Y-8625297I-40000J0D01*
G01*
X14399527Y-8879297D02*
G75*
G03*
X14399527Y-8879297I-40000J0D01*
G01*
X15161527Y-8371297D02*
G75*
G03*
X15161527Y-8371297I-40000J0D01*
G01*
X15161527Y-8625297D02*
G75*
G03*
X15161527Y-8625297I-40000J0D01*
G01*
X15161527Y-8879297D02*
G75*
G03*
X15161527Y-8879297I-40000J0D01*
G01*
D14*
X11921497Y-8330657D02*
X11921497Y-8430657D01*
X11871497Y-8380657D02*
X11971497Y-8380657D01*
X11921497Y-8584657D02*
X11921497Y-8684657D01*
X11871497Y-8634657D02*
X11971497Y-8634657D01*
X15667214Y-8337629D02*
X15667214Y-8437629D01*
X15617214Y-8387629D02*
X15717214Y-8387629D01*
X15667214Y-8591629D02*
X15667214Y-8691629D01*
X15617214Y-8641629D02*
X15717214Y-8641629D01*
X15667214Y-8845629D02*
X15667214Y-8945629D01*
X15617214Y-8895629D02*
X15717214Y-8895629D01*
D11*
X11931619Y-9464476D02*
X11931619Y-9264476D01*
X11979238Y-9264476D01*
X12007809Y-9274000D01*
X12026857Y-9293048D01*
X12036381Y-9312095D01*
X12045905Y-9350190D01*
X12045905Y-9378762D01*
X12036381Y-9416857D01*
X12026857Y-9435905D01*
X12007809Y-9454952D01*
X11979238Y-9464476D01*
X11931619Y-9464476D01*
X12131619Y-9464476D02*
X12131619Y-9331143D01*
X12131619Y-9369238D02*
X12141143Y-9350190D01*
X12150667Y-9340667D01*
X12169714Y-9331143D01*
X12188762Y-9331143D01*
X12255428Y-9464476D02*
X12255428Y-9331143D01*
X12255428Y-9264476D02*
X12245905Y-9274000D01*
X12255428Y-9283524D01*
X12264952Y-9274000D01*
X12255428Y-9264476D01*
X12255428Y-9283524D01*
X12379238Y-9464476D02*
X12360190Y-9454952D01*
X12350667Y-9435905D01*
X12350667Y-9264476D01*
X12484000Y-9464476D02*
X12464952Y-9454952D01*
X12455428Y-9435905D01*
X12455428Y-9264476D01*
X12712571Y-9464476D02*
X12712571Y-9264476D01*
X12779238Y-9407333D01*
X12845905Y-9264476D01*
X12845905Y-9464476D01*
X13026857Y-9464476D02*
X13026857Y-9359714D01*
X13017333Y-9340667D01*
X12998286Y-9331143D01*
X12960190Y-9331143D01*
X12941143Y-9340667D01*
X13026857Y-9454952D02*
X13007809Y-9464476D01*
X12960190Y-9464476D01*
X12941143Y-9454952D01*
X12931619Y-9435905D01*
X12931619Y-9416857D01*
X12941143Y-9397810D01*
X12960190Y-9388286D01*
X13007809Y-9388286D01*
X13026857Y-9378762D01*
X13122095Y-9331143D02*
X13122095Y-9531143D01*
X13122095Y-9340667D02*
X13141143Y-9331143D01*
X13179238Y-9331143D01*
X13198286Y-9340667D01*
X13207809Y-9350190D01*
X13217333Y-9369238D01*
X13217333Y-9426381D01*
X13207809Y-9445429D01*
X13198286Y-9454952D01*
X13179238Y-9464476D01*
X13141143Y-9464476D01*
X13122095Y-9454952D01*
X13303048Y-9445429D02*
X13312571Y-9454952D01*
X13303048Y-9464476D01*
X13293524Y-9454952D01*
X13303048Y-9445429D01*
X13303048Y-9464476D01*
X13303048Y-9340667D02*
X13312571Y-9350190D01*
X13303048Y-9359714D01*
X13293524Y-9350190D01*
X13303048Y-9340667D01*
X13303048Y-9359714D01*
D12*
X11634000Y-9774000D02*
X11674000Y-9814000D01*
X11674000Y-9774000D02*
X11634000Y-9814000D01*
D11*
X11969714Y-9684476D02*
X11988762Y-9684476D01*
X12007809Y-9694000D01*
X12017333Y-9703524D01*
X12026857Y-9722571D01*
X12036381Y-9760667D01*
X12036381Y-9808286D01*
X12026857Y-9846381D01*
X12017333Y-9865429D01*
X12007809Y-9874952D01*
X11988762Y-9884476D01*
X11969714Y-9884476D01*
X11950667Y-9874952D01*
X11941143Y-9865429D01*
X11931619Y-9846381D01*
X11922095Y-9808286D01*
X11922095Y-9760667D01*
X11931619Y-9722571D01*
X11941143Y-9703524D01*
X11950667Y-9694000D01*
X11969714Y-9684476D01*
X12122095Y-9865429D02*
X12131619Y-9874952D01*
X12122095Y-9884476D01*
X12112571Y-9874952D01*
X12122095Y-9865429D01*
X12122095Y-9884476D01*
X12303048Y-9751143D02*
X12303048Y-9884476D01*
X12255428Y-9674952D02*
X12207809Y-9817810D01*
X12331619Y-9817810D01*
X12445905Y-9684476D02*
X12464952Y-9684476D01*
X12484000Y-9694000D01*
X12493524Y-9703524D01*
X12503048Y-9722571D01*
X12512571Y-9760667D01*
X12512571Y-9808286D01*
X12503048Y-9846381D01*
X12493524Y-9865429D01*
X12484000Y-9874952D01*
X12464952Y-9884476D01*
X12445905Y-9884476D01*
X12426857Y-9874952D01*
X12417333Y-9865429D01*
X12407809Y-9846381D01*
X12398286Y-9808286D01*
X12398286Y-9760667D01*
X12407809Y-9722571D01*
X12417333Y-9703524D01*
X12426857Y-9694000D01*
X12445905Y-9684476D01*
X12636381Y-9684476D02*
X12655428Y-9684476D01*
X12674476Y-9694000D01*
X12684000Y-9703524D01*
X12693524Y-9722571D01*
X12703048Y-9760667D01*
X12703048Y-9808286D01*
X12693524Y-9846381D01*
X12684000Y-9865429D01*
X12674476Y-9874952D01*
X12655428Y-9884476D01*
X12636381Y-9884476D01*
X12617333Y-9874952D01*
X12607809Y-9865429D01*
X12598286Y-9846381D01*
X12588762Y-9808286D01*
X12588762Y-9760667D01*
X12598286Y-9722571D01*
X12607809Y-9703524D01*
X12617333Y-9694000D01*
X12636381Y-9684476D01*
X12788762Y-9884476D02*
X12788762Y-9751143D01*
X12788762Y-9770190D02*
X12798286Y-9760667D01*
X12817333Y-9751143D01*
X12845905Y-9751143D01*
X12864952Y-9760667D01*
X12874476Y-9779714D01*
X12874476Y-9884476D01*
X12874476Y-9779714D02*
X12884000Y-9760667D01*
X12903048Y-9751143D01*
X12931619Y-9751143D01*
X12950667Y-9760667D01*
X12960190Y-9779714D01*
X12960190Y-9884476D01*
X13055428Y-9884476D02*
X13055428Y-9751143D01*
X13055428Y-9770190D02*
X13064952Y-9760667D01*
X13084000Y-9751143D01*
X13112571Y-9751143D01*
X13131619Y-9760667D01*
X13141143Y-9779714D01*
X13141143Y-9884476D01*
X13141143Y-9779714D02*
X13150667Y-9760667D01*
X13169714Y-9751143D01*
X13198286Y-9751143D01*
X13217333Y-9760667D01*
X13226857Y-9779714D01*
X13226857Y-9884476D01*
X13617333Y-9674952D02*
X13445905Y-9932095D01*
X13874476Y-9684476D02*
X13893524Y-9684476D01*
X13912571Y-9694000D01*
X13922095Y-9703524D01*
X13931619Y-9722571D01*
X13941143Y-9760667D01*
X13941143Y-9808286D01*
X13931619Y-9846381D01*
X13922095Y-9865429D01*
X13912571Y-9874952D01*
X13893524Y-9884476D01*
X13874476Y-9884476D01*
X13855428Y-9874952D01*
X13845905Y-9865429D01*
X13836381Y-9846381D01*
X13826857Y-9808286D01*
X13826857Y-9760667D01*
X13836381Y-9722571D01*
X13845905Y-9703524D01*
X13855428Y-9694000D01*
X13874476Y-9684476D01*
X14026857Y-9865429D02*
X14036381Y-9874952D01*
X14026857Y-9884476D01*
X14017333Y-9874952D01*
X14026857Y-9865429D01*
X14026857Y-9884476D01*
X14160190Y-9684476D02*
X14179238Y-9684476D01*
X14198286Y-9694000D01*
X14207809Y-9703524D01*
X14217333Y-9722571D01*
X14226857Y-9760667D01*
X14226857Y-9808286D01*
X14217333Y-9846381D01*
X14207809Y-9865429D01*
X14198286Y-9874952D01*
X14179238Y-9884476D01*
X14160190Y-9884476D01*
X14141143Y-9874952D01*
X14131619Y-9865429D01*
X14122095Y-9846381D01*
X14112571Y-9808286D01*
X14112571Y-9760667D01*
X14122095Y-9722571D01*
X14131619Y-9703524D01*
X14141143Y-9694000D01*
X14160190Y-9684476D01*
X14417333Y-9884476D02*
X14303048Y-9884476D01*
X14360190Y-9884476D02*
X14360190Y-9684476D01*
X14341143Y-9713048D01*
X14322095Y-9732095D01*
X14303048Y-9741619D01*
X14598286Y-9684476D02*
X14503048Y-9684476D01*
X14493524Y-9779714D01*
X14503048Y-9770190D01*
X14522095Y-9760667D01*
X14569714Y-9760667D01*
X14588762Y-9770190D01*
X14598286Y-9779714D01*
X14607809Y-9798762D01*
X14607809Y-9846381D01*
X14598286Y-9865429D01*
X14588762Y-9874952D01*
X14569714Y-9884476D01*
X14522095Y-9884476D01*
X14503048Y-9874952D01*
X14493524Y-9865429D01*
X14674476Y-9684476D02*
X14807809Y-9684476D01*
X14722095Y-9884476D01*
X14874476Y-9684476D02*
X14874476Y-9722571D01*
X14950667Y-9684476D02*
X14950667Y-9722571D01*
X15245905Y-9960667D02*
X15236381Y-9951143D01*
X15217333Y-9922571D01*
X15207809Y-9903524D01*
X15198286Y-9874952D01*
X15188762Y-9827333D01*
X15188762Y-9789238D01*
X15198286Y-9741619D01*
X15207809Y-9713048D01*
X15217333Y-9694000D01*
X15236381Y-9665429D01*
X15245905Y-9655905D01*
X15426857Y-9884476D02*
X15312571Y-9884476D01*
X15369714Y-9884476D02*
X15369714Y-9684476D01*
X15350667Y-9713048D01*
X15331619Y-9732095D01*
X15312571Y-9741619D01*
X15664952Y-9884476D02*
X15664952Y-9684476D01*
X15750667Y-9884476D02*
X15750667Y-9779714D01*
X15741143Y-9760667D01*
X15722095Y-9751143D01*
X15693524Y-9751143D01*
X15674476Y-9760667D01*
X15664952Y-9770190D01*
X15874476Y-9884476D02*
X15855428Y-9874952D01*
X15845905Y-9865429D01*
X15836381Y-9846381D01*
X15836381Y-9789238D01*
X15845905Y-9770190D01*
X15855428Y-9760667D01*
X15874476Y-9751143D01*
X15903048Y-9751143D01*
X15922095Y-9760667D01*
X15931619Y-9770190D01*
X15941143Y-9789238D01*
X15941143Y-9846381D01*
X15931619Y-9865429D01*
X15922095Y-9874952D01*
X15903048Y-9884476D01*
X15874476Y-9884476D01*
X16055428Y-9884476D02*
X16036381Y-9874952D01*
X16026857Y-9855905D01*
X16026857Y-9684476D01*
X16207809Y-9874952D02*
X16188762Y-9884476D01*
X16150667Y-9884476D01*
X16131619Y-9874952D01*
X16122095Y-9855905D01*
X16122095Y-9779714D01*
X16131619Y-9760667D01*
X16150667Y-9751143D01*
X16188762Y-9751143D01*
X16207809Y-9760667D01*
X16217333Y-9779714D01*
X16217333Y-9798762D01*
X16122095Y-9817810D01*
X16284000Y-9960667D02*
X16293524Y-9951143D01*
X16312571Y-9922571D01*
X16322095Y-9903524D01*
X16331619Y-9874952D01*
X16341143Y-9827333D01*
X16341143Y-9789238D01*
X16331619Y-9741619D01*
X16322095Y-9713048D01*
X16312571Y-9694000D01*
X16293524Y-9665429D01*
X16284000Y-9655905D01*
D13*
X11674000Y-10058000D02*
G75*
G03*
X11674000Y-10058000I-40000J0D01*
G01*
D11*
X11969714Y-9948476D02*
X11988762Y-9948476D01*
X12007809Y-9958000D01*
X12017333Y-9967524D01*
X12026857Y-9986571D01*
X12036381Y-10024667D01*
X12036381Y-10072286D01*
X12026857Y-10110381D01*
X12017333Y-10129429D01*
X12007809Y-10138952D01*
X11988762Y-10148476D01*
X11969714Y-10148476D01*
X11950667Y-10138952D01*
X11941143Y-10129429D01*
X11931619Y-10110381D01*
X11922095Y-10072286D01*
X11922095Y-10024667D01*
X11931619Y-9986571D01*
X11941143Y-9967524D01*
X11950667Y-9958000D01*
X11969714Y-9948476D01*
X12122095Y-10129429D02*
X12131619Y-10138952D01*
X12122095Y-10148476D01*
X12112571Y-10138952D01*
X12122095Y-10129429D01*
X12122095Y-10148476D01*
X12245905Y-10034190D02*
X12226857Y-10024667D01*
X12217333Y-10015143D01*
X12207809Y-9996095D01*
X12207809Y-9986571D01*
X12217333Y-9967524D01*
X12226857Y-9958000D01*
X12245905Y-9948476D01*
X12284000Y-9948476D01*
X12303048Y-9958000D01*
X12312571Y-9967524D01*
X12322095Y-9986571D01*
X12322095Y-9996095D01*
X12312571Y-10015143D01*
X12303048Y-10024667D01*
X12284000Y-10034190D01*
X12245905Y-10034190D01*
X12226857Y-10043714D01*
X12217333Y-10053238D01*
X12207809Y-10072286D01*
X12207809Y-10110381D01*
X12217333Y-10129429D01*
X12226857Y-10138952D01*
X12245905Y-10148476D01*
X12284000Y-10148476D01*
X12303048Y-10138952D01*
X12312571Y-10129429D01*
X12322095Y-10110381D01*
X12322095Y-10072286D01*
X12312571Y-10053238D01*
X12303048Y-10043714D01*
X12284000Y-10034190D01*
X12445905Y-9948476D02*
X12464952Y-9948476D01*
X12484000Y-9958000D01*
X12493524Y-9967524D01*
X12503048Y-9986571D01*
X12512571Y-10024667D01*
X12512571Y-10072286D01*
X12503048Y-10110381D01*
X12493524Y-10129429D01*
X12484000Y-10138952D01*
X12464952Y-10148476D01*
X12445905Y-10148476D01*
X12426857Y-10138952D01*
X12417333Y-10129429D01*
X12407809Y-10110381D01*
X12398286Y-10072286D01*
X12398286Y-10024667D01*
X12407809Y-9986571D01*
X12417333Y-9967524D01*
X12426857Y-9958000D01*
X12445905Y-9948476D01*
X12636381Y-9948476D02*
X12655428Y-9948476D01*
X12674476Y-9958000D01*
X12684000Y-9967524D01*
X12693524Y-9986571D01*
X12703048Y-10024667D01*
X12703048Y-10072286D01*
X12693524Y-10110381D01*
X12684000Y-10129429D01*
X12674476Y-10138952D01*
X12655428Y-10148476D01*
X12636381Y-10148476D01*
X12617333Y-10138952D01*
X12607809Y-10129429D01*
X12598286Y-10110381D01*
X12588762Y-10072286D01*
X12588762Y-10024667D01*
X12598286Y-9986571D01*
X12607809Y-9967524D01*
X12617333Y-9958000D01*
X12636381Y-9948476D01*
X12788762Y-10148476D02*
X12788762Y-10015143D01*
X12788762Y-10034190D02*
X12798286Y-10024667D01*
X12817333Y-10015143D01*
X12845905Y-10015143D01*
X12864952Y-10024667D01*
X12874476Y-10043714D01*
X12874476Y-10148476D01*
X12874476Y-10043714D02*
X12884000Y-10024667D01*
X12903048Y-10015143D01*
X12931619Y-10015143D01*
X12950667Y-10024667D01*
X12960190Y-10043714D01*
X12960190Y-10148476D01*
X13055428Y-10148476D02*
X13055428Y-10015143D01*
X13055428Y-10034190D02*
X13064952Y-10024667D01*
X13084000Y-10015143D01*
X13112571Y-10015143D01*
X13131619Y-10024667D01*
X13141143Y-10043714D01*
X13141143Y-10148476D01*
X13141143Y-10043714D02*
X13150667Y-10024667D01*
X13169714Y-10015143D01*
X13198286Y-10015143D01*
X13217333Y-10024667D01*
X13226857Y-10043714D01*
X13226857Y-10148476D01*
X13617333Y-9938952D02*
X13445905Y-10196095D01*
X13874476Y-9948476D02*
X13893524Y-9948476D01*
X13912571Y-9958000D01*
X13922095Y-9967524D01*
X13931619Y-9986571D01*
X13941143Y-10024667D01*
X13941143Y-10072286D01*
X13931619Y-10110381D01*
X13922095Y-10129429D01*
X13912571Y-10138952D01*
X13893524Y-10148476D01*
X13874476Y-10148476D01*
X13855428Y-10138952D01*
X13845905Y-10129429D01*
X13836381Y-10110381D01*
X13826857Y-10072286D01*
X13826857Y-10024667D01*
X13836381Y-9986571D01*
X13845905Y-9967524D01*
X13855428Y-9958000D01*
X13874476Y-9948476D01*
X14026857Y-10129429D02*
X14036381Y-10138952D01*
X14026857Y-10148476D01*
X14017333Y-10138952D01*
X14026857Y-10129429D01*
X14026857Y-10148476D01*
X14160190Y-9948476D02*
X14179238Y-9948476D01*
X14198286Y-9958000D01*
X14207809Y-9967524D01*
X14217333Y-9986571D01*
X14226857Y-10024667D01*
X14226857Y-10072286D01*
X14217333Y-10110381D01*
X14207809Y-10129429D01*
X14198286Y-10138952D01*
X14179238Y-10148476D01*
X14160190Y-10148476D01*
X14141143Y-10138952D01*
X14131619Y-10129429D01*
X14122095Y-10110381D01*
X14112571Y-10072286D01*
X14112571Y-10024667D01*
X14122095Y-9986571D01*
X14131619Y-9967524D01*
X14141143Y-9958000D01*
X14160190Y-9948476D01*
X14293524Y-9948476D02*
X14417333Y-9948476D01*
X14350667Y-10024667D01*
X14379238Y-10024667D01*
X14398286Y-10034190D01*
X14407809Y-10043714D01*
X14417333Y-10062762D01*
X14417333Y-10110381D01*
X14407809Y-10129429D01*
X14398286Y-10138952D01*
X14379238Y-10148476D01*
X14322095Y-10148476D01*
X14303048Y-10138952D01*
X14293524Y-10129429D01*
X14607809Y-10148476D02*
X14493524Y-10148476D01*
X14550667Y-10148476D02*
X14550667Y-9948476D01*
X14531619Y-9977048D01*
X14512571Y-9996095D01*
X14493524Y-10005619D01*
X14788762Y-9948476D02*
X14693524Y-9948476D01*
X14684000Y-10043714D01*
X14693524Y-10034190D01*
X14712571Y-10024667D01*
X14760190Y-10024667D01*
X14779238Y-10034190D01*
X14788762Y-10043714D01*
X14798286Y-10062762D01*
X14798286Y-10110381D01*
X14788762Y-10129429D01*
X14779238Y-10138952D01*
X14760190Y-10148476D01*
X14712571Y-10148476D01*
X14693524Y-10138952D01*
X14684000Y-10129429D01*
X14874476Y-9948476D02*
X14874476Y-9986571D01*
X14950667Y-9948476D02*
X14950667Y-9986571D01*
X15245905Y-10224667D02*
X15236381Y-10215143D01*
X15217333Y-10186571D01*
X15207809Y-10167524D01*
X15198286Y-10138952D01*
X15188762Y-10091333D01*
X15188762Y-10053238D01*
X15198286Y-10005619D01*
X15207809Y-9977048D01*
X15217333Y-9958000D01*
X15236381Y-9929429D01*
X15245905Y-9919905D01*
X15350667Y-10034190D02*
X15331619Y-10024667D01*
X15322095Y-10015143D01*
X15312571Y-9996095D01*
X15312571Y-9986571D01*
X15322095Y-9967524D01*
X15331619Y-9958000D01*
X15350667Y-9948476D01*
X15388762Y-9948476D01*
X15407809Y-9958000D01*
X15417333Y-9967524D01*
X15426857Y-9986571D01*
X15426857Y-9996095D01*
X15417333Y-10015143D01*
X15407809Y-10024667D01*
X15388762Y-10034190D01*
X15350667Y-10034190D01*
X15331619Y-10043714D01*
X15322095Y-10053238D01*
X15312571Y-10072286D01*
X15312571Y-10110381D01*
X15322095Y-10129429D01*
X15331619Y-10138952D01*
X15350667Y-10148476D01*
X15388762Y-10148476D01*
X15407809Y-10138952D01*
X15417333Y-10129429D01*
X15426857Y-10110381D01*
X15426857Y-10072286D01*
X15417333Y-10053238D01*
X15407809Y-10043714D01*
X15388762Y-10034190D01*
X15664952Y-10148476D02*
X15664952Y-9948476D01*
X15750667Y-10148476D02*
X15750667Y-10043714D01*
X15741143Y-10024667D01*
X15722095Y-10015143D01*
X15693524Y-10015143D01*
X15674476Y-10024667D01*
X15664952Y-10034190D01*
X15874476Y-10148476D02*
X15855428Y-10138952D01*
X15845905Y-10129429D01*
X15836381Y-10110381D01*
X15836381Y-10053238D01*
X15845905Y-10034190D01*
X15855428Y-10024667D01*
X15874476Y-10015143D01*
X15903048Y-10015143D01*
X15922095Y-10024667D01*
X15931619Y-10034190D01*
X15941143Y-10053238D01*
X15941143Y-10110381D01*
X15931619Y-10129429D01*
X15922095Y-10138952D01*
X15903048Y-10148476D01*
X15874476Y-10148476D01*
X16055428Y-10148476D02*
X16036381Y-10138952D01*
X16026857Y-10119905D01*
X16026857Y-9948476D01*
X16207809Y-10138952D02*
X16188762Y-10148476D01*
X16150667Y-10148476D01*
X16131619Y-10138952D01*
X16122095Y-10119905D01*
X16122095Y-10043714D01*
X16131619Y-10024667D01*
X16150667Y-10015143D01*
X16188762Y-10015143D01*
X16207809Y-10024667D01*
X16217333Y-10043714D01*
X16217333Y-10062762D01*
X16122095Y-10081810D01*
X16293524Y-10138952D02*
X16312571Y-10148476D01*
X16350667Y-10148476D01*
X16369714Y-10138952D01*
X16379238Y-10119905D01*
X16379238Y-10110381D01*
X16369714Y-10091333D01*
X16350667Y-10081810D01*
X16322095Y-10081810D01*
X16303048Y-10072286D01*
X16293524Y-10053238D01*
X16293524Y-10043714D01*
X16303048Y-10024667D01*
X16322095Y-10015143D01*
X16350667Y-10015143D01*
X16369714Y-10024667D01*
X16445905Y-10224667D02*
X16455428Y-10215143D01*
X16474476Y-10186571D01*
X16484000Y-10167524D01*
X16493524Y-10138952D01*
X16503048Y-10091333D01*
X16503048Y-10053238D01*
X16493524Y-10005619D01*
X16484000Y-9977048D01*
X16474476Y-9958000D01*
X16455428Y-9929429D01*
X16445905Y-9919905D01*
D14*
X11624000Y-10272000D02*
X11624000Y-10372000D01*
X11574000Y-10322000D02*
X11674000Y-10322000D01*
D11*
X12036381Y-10412476D02*
X11922095Y-10412476D01*
X11979238Y-10412476D02*
X11979238Y-10212476D01*
X11960190Y-10241048D01*
X11941143Y-10260095D01*
X11922095Y-10269619D01*
X12122095Y-10393429D02*
X12131619Y-10402952D01*
X12122095Y-10412476D01*
X12112571Y-10402952D01*
X12122095Y-10393429D01*
X12122095Y-10412476D01*
X12255428Y-10212476D02*
X12274476Y-10212476D01*
X12293524Y-10222000D01*
X12303048Y-10231524D01*
X12312571Y-10250571D01*
X12322095Y-10288667D01*
X12322095Y-10336286D01*
X12312571Y-10374381D01*
X12303048Y-10393429D01*
X12293524Y-10402952D01*
X12274476Y-10412476D01*
X12255428Y-10412476D01*
X12236381Y-10402952D01*
X12226857Y-10393429D01*
X12217333Y-10374381D01*
X12207809Y-10336286D01*
X12207809Y-10288667D01*
X12217333Y-10250571D01*
X12226857Y-10231524D01*
X12236381Y-10222000D01*
X12255428Y-10212476D01*
X12445905Y-10212476D02*
X12464952Y-10212476D01*
X12484000Y-10222000D01*
X12493524Y-10231524D01*
X12503048Y-10250571D01*
X12512571Y-10288667D01*
X12512571Y-10336286D01*
X12503048Y-10374381D01*
X12493524Y-10393429D01*
X12484000Y-10402952D01*
X12464952Y-10412476D01*
X12445905Y-10412476D01*
X12426857Y-10402952D01*
X12417333Y-10393429D01*
X12407809Y-10374381D01*
X12398286Y-10336286D01*
X12398286Y-10288667D01*
X12407809Y-10250571D01*
X12417333Y-10231524D01*
X12426857Y-10222000D01*
X12445905Y-10212476D01*
X12636381Y-10212476D02*
X12655428Y-10212476D01*
X12674476Y-10222000D01*
X12684000Y-10231524D01*
X12693524Y-10250571D01*
X12703048Y-10288667D01*
X12703048Y-10336286D01*
X12693524Y-10374381D01*
X12684000Y-10393429D01*
X12674476Y-10402952D01*
X12655428Y-10412476D01*
X12636381Y-10412476D01*
X12617333Y-10402952D01*
X12607809Y-10393429D01*
X12598286Y-10374381D01*
X12588762Y-10336286D01*
X12588762Y-10288667D01*
X12598286Y-10250571D01*
X12607809Y-10231524D01*
X12617333Y-10222000D01*
X12636381Y-10212476D01*
X12788762Y-10412476D02*
X12788762Y-10279143D01*
X12788762Y-10298190D02*
X12798286Y-10288667D01*
X12817333Y-10279143D01*
X12845905Y-10279143D01*
X12864952Y-10288667D01*
X12874476Y-10307714D01*
X12874476Y-10412476D01*
X12874476Y-10307714D02*
X12884000Y-10288667D01*
X12903048Y-10279143D01*
X12931619Y-10279143D01*
X12950667Y-10288667D01*
X12960190Y-10307714D01*
X12960190Y-10412476D01*
X13055428Y-10412476D02*
X13055428Y-10279143D01*
X13055428Y-10298190D02*
X13064952Y-10288667D01*
X13084000Y-10279143D01*
X13112571Y-10279143D01*
X13131619Y-10288667D01*
X13141143Y-10307714D01*
X13141143Y-10412476D01*
X13141143Y-10307714D02*
X13150667Y-10288667D01*
X13169714Y-10279143D01*
X13198286Y-10279143D01*
X13217333Y-10288667D01*
X13226857Y-10307714D01*
X13226857Y-10412476D01*
X13617333Y-10202952D02*
X13445905Y-10460095D01*
X13874476Y-10212476D02*
X13893524Y-10212476D01*
X13912571Y-10222000D01*
X13922095Y-10231524D01*
X13931619Y-10250571D01*
X13941143Y-10288667D01*
X13941143Y-10336286D01*
X13931619Y-10374381D01*
X13922095Y-10393429D01*
X13912571Y-10402952D01*
X13893524Y-10412476D01*
X13874476Y-10412476D01*
X13855428Y-10402952D01*
X13845905Y-10393429D01*
X13836381Y-10374381D01*
X13826857Y-10336286D01*
X13826857Y-10288667D01*
X13836381Y-10250571D01*
X13845905Y-10231524D01*
X13855428Y-10222000D01*
X13874476Y-10212476D01*
X14026857Y-10393429D02*
X14036381Y-10402952D01*
X14026857Y-10412476D01*
X14017333Y-10402952D01*
X14026857Y-10393429D01*
X14026857Y-10412476D01*
X14160190Y-10212476D02*
X14179238Y-10212476D01*
X14198286Y-10222000D01*
X14207809Y-10231524D01*
X14217333Y-10250571D01*
X14226857Y-10288667D01*
X14226857Y-10336286D01*
X14217333Y-10374381D01*
X14207809Y-10393429D01*
X14198286Y-10402952D01*
X14179238Y-10412476D01*
X14160190Y-10412476D01*
X14141143Y-10402952D01*
X14131619Y-10393429D01*
X14122095Y-10374381D01*
X14112571Y-10336286D01*
X14112571Y-10288667D01*
X14122095Y-10250571D01*
X14131619Y-10231524D01*
X14141143Y-10222000D01*
X14160190Y-10212476D01*
X14293524Y-10212476D02*
X14417333Y-10212476D01*
X14350667Y-10288667D01*
X14379238Y-10288667D01*
X14398286Y-10298190D01*
X14407809Y-10307714D01*
X14417333Y-10326762D01*
X14417333Y-10374381D01*
X14407809Y-10393429D01*
X14398286Y-10402952D01*
X14379238Y-10412476D01*
X14322095Y-10412476D01*
X14303048Y-10402952D01*
X14293524Y-10393429D01*
X14512571Y-10412476D02*
X14550667Y-10412476D01*
X14569714Y-10402952D01*
X14579238Y-10393429D01*
X14598286Y-10364857D01*
X14607809Y-10326762D01*
X14607809Y-10250571D01*
X14598286Y-10231524D01*
X14588762Y-10222000D01*
X14569714Y-10212476D01*
X14531619Y-10212476D01*
X14512571Y-10222000D01*
X14503048Y-10231524D01*
X14493524Y-10250571D01*
X14493524Y-10298190D01*
X14503048Y-10317238D01*
X14512571Y-10326762D01*
X14531619Y-10336286D01*
X14569714Y-10336286D01*
X14588762Y-10326762D01*
X14598286Y-10317238D01*
X14607809Y-10298190D01*
X14779238Y-10279143D02*
X14779238Y-10412476D01*
X14731619Y-10202952D02*
X14684000Y-10345810D01*
X14807809Y-10345810D01*
X14874476Y-10212476D02*
X14874476Y-10250571D01*
X14950667Y-10212476D02*
X14950667Y-10250571D01*
X15245905Y-10488667D02*
X15236381Y-10479143D01*
X15217333Y-10450571D01*
X15207809Y-10431524D01*
X15198286Y-10402952D01*
X15188762Y-10355333D01*
X15188762Y-10317238D01*
X15198286Y-10269619D01*
X15207809Y-10241048D01*
X15217333Y-10222000D01*
X15236381Y-10193429D01*
X15245905Y-10183905D01*
X15417333Y-10212476D02*
X15322095Y-10212476D01*
X15312571Y-10307714D01*
X15322095Y-10298190D01*
X15341143Y-10288667D01*
X15388762Y-10288667D01*
X15407809Y-10298190D01*
X15417333Y-10307714D01*
X15426857Y-10326762D01*
X15426857Y-10374381D01*
X15417333Y-10393429D01*
X15407809Y-10402952D01*
X15388762Y-10412476D01*
X15341143Y-10412476D01*
X15322095Y-10402952D01*
X15312571Y-10393429D01*
X15664952Y-10412476D02*
X15664952Y-10212476D01*
X15750667Y-10412476D02*
X15750667Y-10307714D01*
X15741143Y-10288667D01*
X15722095Y-10279143D01*
X15693524Y-10279143D01*
X15674476Y-10288667D01*
X15664952Y-10298190D01*
X15874476Y-10412476D02*
X15855428Y-10402952D01*
X15845905Y-10393429D01*
X15836381Y-10374381D01*
X15836381Y-10317238D01*
X15845905Y-10298190D01*
X15855428Y-10288667D01*
X15874476Y-10279143D01*
X15903048Y-10279143D01*
X15922095Y-10288667D01*
X15931619Y-10298190D01*
X15941143Y-10317238D01*
X15941143Y-10374381D01*
X15931619Y-10393429D01*
X15922095Y-10402952D01*
X15903048Y-10412476D01*
X15874476Y-10412476D01*
X16055428Y-10412476D02*
X16036381Y-10402952D01*
X16026857Y-10383905D01*
X16026857Y-10212476D01*
X16207809Y-10402952D02*
X16188762Y-10412476D01*
X16150667Y-10412476D01*
X16131619Y-10402952D01*
X16122095Y-10383905D01*
X16122095Y-10307714D01*
X16131619Y-10288667D01*
X16150667Y-10279143D01*
X16188762Y-10279143D01*
X16207809Y-10288667D01*
X16217333Y-10307714D01*
X16217333Y-10326762D01*
X16122095Y-10345810D01*
X16293524Y-10402952D02*
X16312571Y-10412476D01*
X16350667Y-10412476D01*
X16369714Y-10402952D01*
X16379238Y-10383905D01*
X16379238Y-10374381D01*
X16369714Y-10355333D01*
X16350667Y-10345810D01*
X16322095Y-10345810D01*
X16303048Y-10336286D01*
X16293524Y-10317238D01*
X16293524Y-10307714D01*
X16303048Y-10288667D01*
X16322095Y-10279143D01*
X16350667Y-10279143D01*
X16369714Y-10288667D01*
X16445905Y-10488667D02*
X16455428Y-10479143D01*
X16474476Y-10450571D01*
X16484000Y-10431524D01*
X16493524Y-10402952D01*
X16503048Y-10355333D01*
X16503048Y-10317238D01*
X16493524Y-10269619D01*
X16484000Y-10241048D01*
X16474476Y-10222000D01*
X16455428Y-10193429D01*
X16445905Y-10183905D01*
M02*
