%TF.GenerationSoftware,KiCad,Pcbnew,(6.0.1)*%
%TF.CreationDate,2022-11-04T01:34:04+00:00*%
%TF.ProjectId,rusEFI-Optoisolator,72757345-4649-42d4-9f70-746f69736f6c,rev?*%
%TF.SameCoordinates,Original*%
%TF.FileFunction,Legend,Bot*%
%TF.FilePolarity,Positive*%
%FSLAX46Y46*%
G04 Gerber Fmt 4.6, Leading zero omitted, Abs format (unit mm)*
G04 Created by KiCad (PCBNEW (6.0.1)) date 2022-11-04 01:34:04*
%MOMM*%
%LPD*%
G01*
G04 APERTURE LIST*
%ADD10C,0.300000*%
G04 APERTURE END LIST*
D10*
X137383795Y-83772121D02*
X137098081Y-83772121D01*
X136955224Y-83843550D01*
X136812367Y-83986407D01*
X136740938Y-84272121D01*
X136740938Y-84772121D01*
X136812367Y-85057835D01*
X136955224Y-85200692D01*
X137098081Y-85272121D01*
X137383795Y-85272121D01*
X137526652Y-85200692D01*
X137669510Y-85057835D01*
X137740938Y-84772121D01*
X137740938Y-84272121D01*
X137669510Y-83986407D01*
X137526652Y-83843550D01*
X137383795Y-83772121D01*
X136098081Y-84272121D02*
X136098081Y-85772121D01*
X136098081Y-84343550D02*
X135955224Y-84272121D01*
X135669510Y-84272121D01*
X135526652Y-84343550D01*
X135455224Y-84414978D01*
X135383795Y-84557835D01*
X135383795Y-84986407D01*
X135455224Y-85129264D01*
X135526652Y-85200692D01*
X135669510Y-85272121D01*
X135955224Y-85272121D01*
X136098081Y-85200692D01*
X134955224Y-84272121D02*
X134383795Y-84272121D01*
X134740938Y-83772121D02*
X134740938Y-85057835D01*
X134669510Y-85200692D01*
X134526652Y-85272121D01*
X134383795Y-85272121D01*
X133669510Y-85272121D02*
X133812367Y-85200692D01*
X133883795Y-85129264D01*
X133955224Y-84986407D01*
X133955224Y-84557835D01*
X133883795Y-84414978D01*
X133812367Y-84343550D01*
X133669510Y-84272121D01*
X133455224Y-84272121D01*
X133312367Y-84343550D01*
X133240938Y-84414978D01*
X133169510Y-84557835D01*
X133169510Y-84986407D01*
X133240938Y-85129264D01*
X133312367Y-85200692D01*
X133455224Y-85272121D01*
X133669510Y-85272121D01*
X132526652Y-85272121D02*
X132526652Y-84272121D01*
X132526652Y-83772121D02*
X132598081Y-83843550D01*
X132526652Y-83914978D01*
X132455224Y-83843550D01*
X132526652Y-83772121D01*
X132526652Y-83914978D01*
X131883795Y-85200692D02*
X131740938Y-85272121D01*
X131455224Y-85272121D01*
X131312367Y-85200692D01*
X131240938Y-85057835D01*
X131240938Y-84986407D01*
X131312367Y-84843550D01*
X131455224Y-84772121D01*
X131669510Y-84772121D01*
X131812367Y-84700692D01*
X131883795Y-84557835D01*
X131883795Y-84486407D01*
X131812367Y-84343550D01*
X131669510Y-84272121D01*
X131455224Y-84272121D01*
X131312367Y-84343550D01*
X130383795Y-85272121D02*
X130526652Y-85200692D01*
X130598081Y-85129264D01*
X130669510Y-84986407D01*
X130669510Y-84557835D01*
X130598081Y-84414978D01*
X130526652Y-84343550D01*
X130383795Y-84272121D01*
X130169510Y-84272121D01*
X130026652Y-84343550D01*
X129955224Y-84414978D01*
X129883795Y-84557835D01*
X129883795Y-84986407D01*
X129955224Y-85129264D01*
X130026652Y-85200692D01*
X130169510Y-85272121D01*
X130383795Y-85272121D01*
X129026652Y-85272121D02*
X129169510Y-85200692D01*
X129240938Y-85057835D01*
X129240938Y-83772121D01*
X127812367Y-85272121D02*
X127812367Y-84486407D01*
X127883795Y-84343550D01*
X128026652Y-84272121D01*
X128312367Y-84272121D01*
X128455224Y-84343550D01*
X127812367Y-85200692D02*
X127955224Y-85272121D01*
X128312367Y-85272121D01*
X128455224Y-85200692D01*
X128526652Y-85057835D01*
X128526652Y-84914978D01*
X128455224Y-84772121D01*
X128312367Y-84700692D01*
X127955224Y-84700692D01*
X127812367Y-84629264D01*
X127312367Y-84272121D02*
X126740938Y-84272121D01*
X127098081Y-83772121D02*
X127098081Y-85057835D01*
X127026652Y-85200692D01*
X126883795Y-85272121D01*
X126740938Y-85272121D01*
X126026652Y-85272121D02*
X126169510Y-85200692D01*
X126240938Y-85129264D01*
X126312367Y-84986407D01*
X126312367Y-84557835D01*
X126240938Y-84414978D01*
X126169510Y-84343550D01*
X126026652Y-84272121D01*
X125812367Y-84272121D01*
X125669510Y-84343550D01*
X125598081Y-84414978D01*
X125526652Y-84557835D01*
X125526652Y-84986407D01*
X125598081Y-85129264D01*
X125669510Y-85200692D01*
X125812367Y-85272121D01*
X126026652Y-85272121D01*
X124883795Y-85272121D02*
X124883795Y-84272121D01*
X124883795Y-84557835D02*
X124812367Y-84414978D01*
X124740938Y-84343550D01*
X124598081Y-84272121D01*
X124455224Y-84272121D01*
X136026652Y-86687121D02*
X135455224Y-86687121D01*
X135812367Y-87687121D02*
X135812367Y-86401407D01*
X135740938Y-86258550D01*
X135598081Y-86187121D01*
X135455224Y-86187121D01*
X134740938Y-87687121D02*
X134883795Y-87615692D01*
X134955224Y-87544264D01*
X135026652Y-87401407D01*
X135026652Y-86972835D01*
X134955224Y-86829978D01*
X134883795Y-86758550D01*
X134740938Y-86687121D01*
X134526652Y-86687121D01*
X134383795Y-86758550D01*
X134312367Y-86829978D01*
X134240938Y-86972835D01*
X134240938Y-87401407D01*
X134312367Y-87544264D01*
X134383795Y-87615692D01*
X134526652Y-87687121D01*
X134740938Y-87687121D01*
X133598081Y-87687121D02*
X133598081Y-86687121D01*
X133598081Y-86972835D02*
X133526652Y-86829978D01*
X133455224Y-86758550D01*
X133312367Y-86687121D01*
X133169510Y-86687121D01*
X131526652Y-87687121D02*
X131526652Y-86687121D01*
X131526652Y-86972835D02*
X131455224Y-86829978D01*
X131383795Y-86758550D01*
X131240938Y-86687121D01*
X131098081Y-86687121D01*
X129955224Y-86687121D02*
X129955224Y-87687121D01*
X130598081Y-86687121D02*
X130598081Y-87472835D01*
X130526652Y-87615692D01*
X130383795Y-87687121D01*
X130169510Y-87687121D01*
X130026652Y-87615692D01*
X129955224Y-87544264D01*
X129312367Y-87615692D02*
X129169510Y-87687121D01*
X128883795Y-87687121D01*
X128740938Y-87615692D01*
X128669510Y-87472835D01*
X128669510Y-87401407D01*
X128740938Y-87258550D01*
X128883795Y-87187121D01*
X129098081Y-87187121D01*
X129240938Y-87115692D01*
X129312367Y-86972835D01*
X129312367Y-86901407D01*
X129240938Y-86758550D01*
X129098081Y-86687121D01*
X128883795Y-86687121D01*
X128740938Y-86758550D01*
X128026652Y-86901407D02*
X127526652Y-86901407D01*
X127312367Y-87687121D02*
X128026652Y-87687121D01*
X128026652Y-86187121D01*
X127312367Y-86187121D01*
X126169510Y-86901407D02*
X126669510Y-86901407D01*
X126669510Y-87687121D02*
X126669510Y-86187121D01*
X125955224Y-86187121D01*
X125383795Y-87687121D02*
X125383795Y-86187121D01*
M02*
